<?xml version="1.0" encoding="UTF-8"?>
<svg id="Layer_1" data-name="Layer 1" xmlns="http://www.w3.org/2000/svg" viewBox="0 0 283.46 283.46">
  <defs>
    <style>
      .cls-1 {
        fill: #7a2981;
      }

      .cls-1, .cls-2, .cls-3 {
        stroke-width: 0px;
      }

      .cls-2 {
        fill: #0f2d52;
      }

      .cls-3 {
        fill: #09c0de;
      }
    </style>
  </defs>
  <path class="cls-2" d="m141.05,169.51c-5.44,0-9.86-4.95-9.86-11.06V11.05c0-6.11,4.41-11.05,9.86-11.05s9.86,4.95,9.86,11.05v147.4c0,6.1-4.41,11.06-9.86,11.06Z"/>
  <path class="cls-2" d="m9.87,273.99c-3.41,0-6.72-1.98-8.54-5.53-2.72-5.29-1.11-12.05,3.61-15.1l113.8-73.7c4.71-3.06,10.74-1.24,13.46,4.05,2.72,5.29,1.11,12.05-3.61,15.1L14.78,272.51c-1.55,1.01-3.25,1.48-4.92,1.48Z"/>
  <path class="cls-2" d="m273.59,273.99c-1.67,0-3.37-.48-4.92-1.48l-113.8-73.7c-4.71-3.05-6.33-9.81-3.61-15.1,2.72-5.29,8.75-7.1,13.46-4.05l113.8,73.7c4.71,3.05,6.33,9.81,3.61,15.1-1.82,3.55-5.14,5.53-8.54,5.53Z"/>
  <path class="cls-1" d="m247.8,210.52c-1.47,0-2.96-.42-4.33-1.31l-74.59-48.34v-93.92c0-5.37,3.88-9.73,8.67-9.73s8.67,4.36,8.67,9.73v82.69l65.92,42.73c4.15,2.69,5.57,8.64,3.17,13.29-1.61,3.12-4.52,4.86-7.52,4.86Z"/>
  <path class="cls-1" d="m71.82,278.52c-3,0-5.91-1.75-7.52-4.87-2.39-4.65-.97-10.6,3.18-13.29l74.62-48.29,72.51,46.96c4.15,2.69,5.57,8.64,3.17,13.29-2.4,4.66-7.7,6.25-11.85,3.56l-63.84-41.34-65.95,42.68c-1.36.88-2.85,1.3-4.33,1.3Z"/>
  <path class="cls-1" d="m34.4,210.52c-3,0-5.91-1.74-7.52-4.86-2.4-4.65-.98-10.6,3.17-13.29l65.92-42.73v-82.69c0-5.37,3.88-9.73,8.67-9.73s8.67,4.36,8.67,9.73v93.92l-74.59,48.34c-1.37.88-2.86,1.31-4.33,1.31Z"/>
  <path class="cls-3" d="m227.21,153.56c-.94,0-1.89-.27-2.76-.83l-22.28-14.44v-32.55c0-3.42,2.47-6.19,5.52-6.19s5.52,2.77,5.52,6.19v25.41l16.77,10.87c2.64,1.71,3.54,5.5,2.02,8.46-1.02,1.98-2.88,3.09-4.78,3.09Z"/>
  <path class="cls-3" d="m164.74,283.46c-.94,0-1.89-.27-2.76-.83l-19.61-12.7-16.77,10.85c-2.64,1.7-6.01.69-7.54-2.27-1.52-2.96-.62-6.75,2.02-8.46l22.29-14.42,25.13,16.28c2.64,1.71,3.55,5.5,2.02,8.46-1.02,1.99-2.88,3.1-4.78,3.1Z"/>
  <path class="cls-3" d="m55.4,153.56c-1.91,0-3.76-1.11-4.78-3.09-1.52-2.96-.62-6.75,2.02-8.46l16.77-10.87v-25.41c0-3.42,2.47-6.19,5.52-6.19s5.52,2.77,5.52,6.19v32.55l-22.28,14.44c-.87.56-1.82.83-2.76.83Z"/>
</svg>