<?xml version="1.0" encoding="UTF-8"?>
<svg id="Layer_1" data-name="Layer 1" xmlns="http://www.w3.org/2000/svg" viewBox="0 0 250.83 230.93">
  <defs>
    <style>
      .cls-1 {
        fill: #7a2981;
      }

      .cls-1, .cls-2, .cls-3 {
        stroke-width: 0px;
      }

      .cls-2 {
        fill: #0f2d52;
      }

      .cls-3 {
        fill: #09c0de;
      }
    </style>
  </defs>
  <path class="cls-2" d="m125.23,67.02c-2.41,0-4.37-1.96-4.37-4.37V4.37c0-2.41,1.96-4.37,4.37-4.37s4.37,1.96,4.37,4.37v58.28c0,2.41-1.96,4.37-4.37,4.37Z"/>
  <path class="cls-2" d="m67.05,108.33c-1.51,0-2.98-.78-3.79-2.19-1.21-2.09-.49-4.76,1.6-5.97l50.47-29.14c2.09-1.21,4.76-.49,5.97,1.6,1.21,2.09.49,4.76-1.6,5.97l-50.47,29.14c-.69.4-1.44.59-2.18.59Z"/>
  <path class="cls-2" d="m184.02,108.33c-.74,0-1.49-.19-2.18-.59l-50.47-29.14c-2.09-1.21-2.81-3.88-1.6-5.97,1.21-2.09,3.88-2.81,5.97-1.6l50.47,29.14c2.09,1.21,2.81,3.88,1.6,5.97-.81,1.4-2.28,2.19-3.79,2.19Z"/>
  <path class="cls-1" d="m172.58,83.24c-.65,0-1.31-.17-1.92-.52l-33.08-19.11V26.47c0-2.12,1.72-3.85,3.85-3.85s3.85,1.72,3.85,3.85v32.7l29.24,16.89c1.84,1.06,2.47,3.42,1.41,5.26-.71,1.23-2.01,1.92-3.33,1.92Z"/>
  <path class="cls-1" d="m94.53,110.12c-1.33,0-2.62-.69-3.33-1.93-1.06-1.84-.43-4.19,1.41-5.25l33.09-19.09,32.16,18.57c1.84,1.06,2.47,3.41,1.41,5.25-1.06,1.84-3.42,2.47-5.25,1.41l-28.31-16.35-29.25,16.87c-.61.35-1.27.52-1.92.52Z"/>
  <path class="cls-1" d="m77.93,83.24c-1.33,0-2.62-.69-3.33-1.92-1.06-1.84-.43-4.19,1.41-5.26l29.24-16.89V26.47c0-2.12,1.72-3.85,3.85-3.85s3.85,1.72,3.85,3.85v37.14l-33.08,19.11c-.61.35-1.27.52-1.92.52Z"/>
  <path class="cls-3" d="m163.45,60.71c-.42,0-.84-.11-1.22-.33l-9.88-5.71v-12.87c0-1.35,1.1-2.45,2.45-2.45s2.45,1.1,2.45,2.45v10.05l7.44,4.3c1.17.68,1.57,2.17.89,3.34-.45.78-1.28,1.22-2.12,1.22Z"/>
  <path class="cls-3" d="m135.74,112.08c-.42,0-.84-.11-1.22-.33l-8.7-5.02-7.44,4.29c-1.17.67-2.67.27-3.34-.9-.68-1.17-.27-2.67.9-3.34l9.89-5.7,11.15,6.44c1.17.68,1.57,2.17.9,3.34-.45.79-1.28,1.22-2.12,1.22Z"/>
  <path class="cls-3" d="m87.25,60.71c-.85,0-1.67-.44-2.12-1.22-.68-1.17-.28-2.67.89-3.34l7.44-4.3v-10.05c0-1.35,1.1-2.45,2.45-2.45s2.45,1.1,2.45,2.45v12.87l-9.88,5.71c-.39.22-.81.33-1.22.33Z"/>
  <g>
    <path class="cls-2" d="m20.5,174.49l-8.3-10.46h-3.37v10.04c0,2.53-1.32,4.03-3.85,4.03h-1.26c-2.4,0-3.73-1.74-3.73-4.87v-29.34c0-3.13,1.74-4.93,4.63-4.93h11.48c10.1,0,15.33,4.21,15.33,12.14,0,6.25-3.55,10.46-10.1,11.54l10.1,12.2c.36.42-1.32,3.25-5.11,3.25-2.53,0-3.97-1.08-5.83-3.61Zm-11.78-16.95h6.79c4.75,0,7.03-2.22,7.03-5.83,0-3.79-2.4-5.83-7.21-5.83h-6.61v11.66Z"/>
    <path class="cls-2" d="m35.22,163.19c0-9.02,6.43-15.33,15.75-15.33s15.63,6.31,15.63,15.45-6.37,15.33-15.75,15.33-15.63-6.19-15.63-15.45Zm23.87.12c0-5.11-3.43-8.84-8.18-8.84s-8.24,3.67-8.24,8.72,3.49,8.78,8.24,8.78,8.18-3.67,8.18-8.66Z"/>
    <path class="cls-2" d="m71.65,174.07v-37.03c0-.3,1.5-.96,3.19-.96,2.52,0,5.29,1.32,5.29,6.79v31.2c0,3.07-1.56,4.03-3.73,4.03h-.9c-2.22,0-3.85-.9-3.85-4.03Z"/>
    <path class="cls-2" d="m86.97,174.07v-37.03c0-.3,1.5-.96,3.19-.96,2.52,0,5.29,1.32,5.29,6.79v31.2c0,3.07-1.56,4.03-3.73,4.03h-.9c-2.22,0-3.85-.9-3.85-4.03Z"/>
    <path class="cls-2" d="m100.5,163.43c0-8.96,6.43-15.57,15.33-15.57s14.61,6.07,14.61,14.67v.6c-.06,1.5-.48,2.34-2.04,2.34h-20.26c.6,4.39,3.97,6.97,8.54,6.97s6.91-1.98,8.3-4.33c.06-.12,4.09.42,4.09,3.79,0,3.19-4.51,6.73-12.68,6.73-9.56,0-15.87-5.95-15.87-15.21Zm7.63-2.88h14.43c-.18-4.09-2.77-6.79-6.85-6.79s-6.97,2.82-7.57,6.79Z"/>
    <path class="cls-2" d="m133.13,172.15c0-2.16,2.4-3.67,2.59-3.49,2.04,2.16,5.35,3.91,9.68,3.91,3.31,0,5.17-.96,5.17-2.82,0-2.22-2.34-2.59-6.31-3.43-4.03-.9-10.34-2.22-10.34-8.9,0-5.71,4.81-9.5,12.26-9.5,7.94,0,11.9,2.89,11.9,6.25,0,2.22-2.59,3.79-2.76,3.61-1.98-2.28-5.17-3.91-8.6-3.91-3.19,0-4.99,1.02-4.99,2.89,0,2.1,2.34,2.4,6.25,3.31,4.15.9,10.82,2.28,10.82,8.96,0,5.89-4.87,9.5-12.93,9.5-8.6,0-12.74-3.01-12.74-6.37Z"/>
    <path class="cls-2" d="m161.44,152.19v-.54c0-2.04,1.14-3.13,3.55-3.13h1.44v-3.73c0-2.76,1.44-4.09,3.85-4.09h.72c2.28,0,3.79.96,3.79,4.09v3.73h5.11c2.41,0,3.43,1.02,3.43,3.01v.48c0,2.04-1.08,3.13-3.49,3.13h-5.23v12.5c0,2.89.96,4.33,3.25,4.33,1.74,0,2.89-.84,3.79-1.98.12-.18,2.04.96,2.04,3.31,0,2.95-2.95,5.35-7.75,5.35-6.49,0-9.5-3.43-9.5-10.04v-13.47h-1.44c-2.41,0-3.55-1.02-3.55-2.95Z"/>
    <path class="cls-2" d="m185.79,163.19c0-9.02,6.43-15.33,15.75-15.33s15.63,6.31,15.63,15.45-6.37,15.33-15.75,15.33-15.63-6.19-15.63-15.45Zm23.87.12c0-5.11-3.43-8.84-8.18-8.84s-8.24,3.67-8.24,8.72,3.49,8.78,8.24,8.78,8.18-3.67,8.18-8.66Z"/>
    <path class="cls-2" d="m230.27,153.03c2.04-3.01,5.11-5.17,9.68-5.17,7.63,0,10.88,5.41,10.88,12.14v14.07c0,3.07-1.56,4.03-3.73,4.03h-.9c-2.28,0-3.85-.9-3.85-4.03v-12.8c0-3.91-1.98-6.31-5.41-6.31-3.01,0-5.29,1.56-6.49,3.85v15.27c0,3.07-1.56,4.03-3.73,4.03h-.9c-2.28,0-3.85-.9-3.85-4.03v-24.89c0-.24,1.5-.96,3.19-.96,2.16,0,4.51,1.02,5.11,4.81Z"/>
  </g>
  <g>
    <path class="cls-2" d="m50.53,205.85c0-9.32,6.35-15.9,15.48-15.9,7.62,0,11.48,4.33,11.48,6.45,0,2.26-2.73,2.82-2.82,2.63-1.74-3.06-5.18-4.7-8.61-4.7-6.16,0-10.49,4.66-10.49,11.43s4.47,11.48,10.59,11.48c4.09,0,7.53-2.02,8.8-5.32.09-.24,3.01.33,3.01,2.59s-4,7.1-12.09,7.1c-9.03,0-15.34-6.49-15.34-15.76Z"/>
    <path class="cls-2" d="m81.07,209.66c0-6.92,4.89-11.86,11.9-11.86s11.81,4.99,11.81,11.95-4.89,11.86-11.86,11.86-11.86-4.94-11.86-11.95Zm19.38.09c0-4.71-3.15-8.14-7.53-8.14s-7.57,3.39-7.57,8.05,3.25,8.14,7.57,8.14,7.53-3.43,7.53-8.05Z"/>
    <path class="cls-2" d="m109.35,218.98v-29.78c0-.14.8-.52,1.69-.52,1.46,0,2.96.75,2.96,4v26.3c0,1.69-.85,2.21-2.07,2.21h-.47c-1.22,0-2.12-.52-2.12-2.21Z"/>
    <path class="cls-2" d="m120.17,218.98v-29.78c0-.14.8-.52,1.69-.52,1.46,0,2.96.75,2.96,4v26.3c0,1.69-.85,2.21-2.07,2.21h-.47c-1.22,0-2.12-.52-2.12-2.21Z"/>
    <path class="cls-2" d="m129.44,209.8c0-6.87,4.89-12,11.57-12s10.87,4.61,10.87,11.39v.38c0,.99-.33,1.36-1.41,1.36h-16.7c.33,4.19,3.43,7.01,7.72,7.01,3.95,0,5.93-1.74,7.1-3.76.09-.09,2.45.33,2.45,2.31s-3.48,5.13-9.64,5.13c-7.15,0-11.95-4.75-11.95-11.81Zm4.38-2.02h13.55c-.24-3.9-2.63-6.45-6.4-6.45s-6.59,2.68-7.15,6.45Z"/>
    <path class="cls-2" d="m153.25,224.67c0-3.29,3.11-5.5,7.2-6.21-.56-.47-.89-1.18-.89-2.12s.52-1.79,1.27-2.45c-3.62-1.13-5.93-4-5.93-7.53,0-4.75,4.09-8.56,9.69-8.56,1.98,0,3.86.52,5.41,1.36l1.22-2.16c.75-1.22,1.51-1.79,2.68-1.79,1.74,0,2.54,1.88,2.4,1.98l-3.86,4c1.22,1.41,1.98,3.15,1.98,5.03,0,4.75-4.05,8.23-9.79,8.23h-.85c-.19.28-.24.52-.24.8,0,1.46,2.16,1.6,6.12,2.59,3.2.85,6.59,2.45,6.59,6.16,0,4.28-4.37,6.92-11.86,6.92s-11.15-2.02-11.15-6.26Zm11.53-4.14c-3.86.24-7.06,1.6-7.06,4,0,2.02,2.31,3.15,6.78,3.15s7.24-1.27,7.24-3.53-3.62-2.78-6.96-3.62Zm5.13-14.26c0-3.01-2.16-5.13-5.36-5.13s-5.22,2.07-5.22,5.13,2.21,5.13,5.32,5.13,5.27-2.07,5.27-5.13Z"/>
    <path class="cls-2" d="m177.85,209.8c0-6.87,4.89-12,11.57-12s10.87,4.61,10.87,11.39v.38c0,.99-.33,1.36-1.41,1.36h-16.7c.33,4.19,3.43,7.01,7.72,7.01,3.95,0,5.93-1.74,7.1-3.76.09-.09,2.45.33,2.45,2.31s-3.48,5.13-9.65,5.13c-7.15,0-11.95-4.75-11.95-11.81Zm4.38-2.02h13.55c-.24-3.9-2.64-6.45-6.4-6.45s-6.59,2.68-7.15,6.45Z"/>
  </g>
</svg>